<svg width="170" height="170" viewBox="0 0 170 170" fill="none" xmlns="http://www.w3.org/2000/svg">
<path fill-rule="evenodd" clip-rule="evenodd" d="M106.25 23.0208C106.25 30.8125 99.8749 37.1875 92.0832 37.1875C84.2916 37.1875 77.9166 30.8125 77.9166 23.0208C77.9166 15.2292 84.2916 8.85416 92.0832 8.85416C99.8749 8.85416 106.25 15.2292 106.25 23.0208ZM46.0416 161.146L65.8749 61.271L53.1249 66.2293V90.3127H38.9583V57.021L74.7291 41.8627C81.5999 38.9585 89.5332 41.5085 93.4999 47.8127L100.583 59.146C106.25 69.0627 117.583 76.146 131.042 76.146V90.3127C115.458 90.3127 101.292 83.2293 92.0832 72.6043L87.8333 93.8543L102.708 108.021V161.146H88.5416V118.646L73.6666 104.479L60.9166 161.146H46.0416Z" fill="#333333"/>
</svg>
