<svg width="200" height="200" viewBox="0 0 200 200" fill="none" xmlns="http://www.w3.org/2000/svg">
<path fill-rule="evenodd" clip-rule="evenodd" d="M74.9999 100C91.0833 100 104.167 86.9167 104.167 70.8334C104.167 54.75 91.0833 41.6667 74.9999 41.6667C58.9166 41.6667 45.8333 54.75 45.8333 70.8334C45.8333 86.9167 58.9166 100 74.9999 100ZM16.6666 143.75C16.6666 124.333 55.5 114.583 75 114.583C94.5 114.583 133.333 124.333 133.333 143.75V158.333H16.6666V143.75ZM74.9988 131.25C60.0821 131.25 43.1655 136.833 36.1655 141.667H113.832C106.832 136.833 89.9155 131.25 74.9988 131.25ZM87.5 70.8334C87.5 63.9167 81.9166 58.3334 75 58.3334C68.0833 58.3334 62.5 63.9167 62.5 70.8334C62.5 77.75 68.0833 83.3334 75 83.3334C81.9166 83.3334 87.5 77.75 87.5 70.8334ZM133.667 115.084C143.334 122.084 150 131.417 150 143.75V158.334H183.334V143.75C183.334 126.917 154.167 117.334 133.667 115.084ZM154.167 70.8334C154.167 86.9167 141.083 100 125 100C120.5 100 116.333 98.9167 112.5 97.0834C117.75 89.6667 120.833 80.5834 120.833 70.8334C120.833 61.0834 117.75 52 112.5 44.5834C116.333 42.75 120.5 41.6667 125 41.6667C141.083 41.6667 154.167 54.75 154.167 70.8334Z" fill="#333333"/>
</svg>
