<svg width="208" height="209" viewBox="0 0 208 209" fill="none" xmlns="http://www.w3.org/2000/svg">
<path d="M54 102.136C44.817 103.532 38.9919 105.44 38.9898 107.86C38.9798 119.292 38.9898 205 38.9898 205H48.9898V159.287H158.99V205H168.99C168.99 205 168.99 119.293 168.99 107.86C168.99 105.441 163.173 103.536 154 102.141M54 102.136V50.7132H154V102.141M54 102.136C57.7693 101.564 62.1043 101.077 66.8345 100.677M154 102.141C150.223 101.566 145.877 101.078 141.133 100.677M66.8345 100.677V67.8556H99V99.3768M66.8345 100.677C77.8057 99.7489 85.9031 99.3764 99 99.3768M99 99.3768C102.345 99.3769 105.69 99.3161 109 99.3768M141.133 100.677V67.8556H109V99.3768M141.133 100.677C132.973 99.9869 118.637 99.5535 109 99.3768M4 96.4264V39.2849L104 5L204 39.2849V96.4264" stroke="black" stroke-width="8"/>
</svg>
