<svg width="168" height="160" viewBox="0 0 168 160" fill="none" xmlns="http://www.w3.org/2000/svg">
<path fill-rule="evenodd" clip-rule="evenodd" d="M119 56.6667H126C133.7 56.6667 140 62.6667 140 70V136.667C140 144 133.7 150 126 150H42C34.3 150 28 144 28 136.667V70C28 62.6667 34.3 56.6667 42 56.6667H49V43.3333C49 24.9333 64.68 10 84 10C103.32 10 119 24.9333 119 43.3333V56.6667ZM84 23.3333C72.38 23.3333 63 32.2667 63 43.3333V56.6667H105V43.3333C105 32.2667 95.62 23.3333 84 23.3333ZM42 136.667V70H126V136.667H42ZM98 103.333C98 110.667 91.7 116.667 84 116.667C76.3 116.667 70 110.667 70 103.333C70 96 76.3 90 84 90C91.7 90 98 96 98 103.333Z" fill="#333333"/>
</svg>