<svg width="175" height="175" viewBox="0 0 175 175" fill="none" xmlns="http://www.w3.org/2000/svg">
<path fill-rule="evenodd" clip-rule="evenodd" d="M138.542 21.875H108.062C105 13.4167 96.9792 7.29169 87.5 7.29169C78.0208 7.29169 70 13.4167 66.9375 21.875H36.4583C28.4375 21.875 21.875 28.4375 21.875 36.4583V153.125C21.875 161.146 28.4375 167.708 36.4583 167.708H138.542C146.562 167.708 153.125 161.146 153.125 153.125V36.4583C153.125 28.4375 146.562 21.875 138.542 21.875ZM87.5 21.875C91.5104 21.875 94.7917 25.1563 94.7917 29.1667C94.7917 33.1771 91.5104 36.4584 87.5 36.4584C83.4896 36.4584 80.2083 33.1771 80.2083 29.1667C80.2083 25.1563 83.4896 21.875 87.5 21.875ZM36.4583 153.125H138.542V36.4583H123.958V58.3333H51.0417V36.4583H36.4583V153.125Z" fill="#333333"/>
</svg>
